<svg xmlns="http://www.w3.org/2000/svg" viewBox="0 0 1200 630" role="img" aria-label="Lars Nieuwenhuis portfolio">
  <defs>
    <linearGradient id="bg" x1="0" y1="0" x2="1" y2="1">
      <stop offset="0" stop-color="#fff7fb"/>
      <stop offset="0.48" stop-color="#fbfbfd"/>
      <stop offset="1" stop-color="#e1f3ff"/>
    </linearGradient>
  </defs>
  <rect width="1200" height="630" fill="url(#bg)"/>
  <path d="M0 140h1200M0 280h1200M0 420h1200M0 560h1200M160 0v630M320 0v630M480 0v630M640 0v630M800 0v630M960 0v630" stroke="#111119" stroke-opacity=".08"/>
  <rect x="84" y="84" width="1032" height="462" rx="10" fill="#ffffff" fill-opacity=".72" stroke="#111119" stroke-opacity=".14"/>
  <text x="126" y="252" fill="#111119" font-family="Inter, Arial, sans-serif" font-size="84" font-weight="900">Lars Nieuwenhuis</text>
  <text x="132" y="326" fill="#626676" font-family="Inter, Arial, sans-serif" font-size="34" font-weight="700">Software developer / full-stack builder</text>
  <rect x="132" y="386" width="210" height="8" rx="4" fill="#ff6fbd"/>
  <rect x="362" y="386" width="210" height="8" rx="4" fill="#7ec8ff"/>
  <rect x="592" y="386" width="160" height="8" rx="4" fill="#91e5c5"/>
</svg>
